Adsworth-72PT G1 XT0.ufo
<glyph name="dollar" format="2">
  <advance width="681"/>
  <unicode hex="0024"/>
  <outline>
    <contour>
      <point x="273.0" y="354.0" type="line" smooth="yes"/>
      <point x="273.0" y="412.0"/>
      <point x="218" y="462"/>
      <point x="171" y="573" type="qcurve" smooth="yes"/>
      <point x="82" y="719"/>
      <point x="-5" y="988"/>
      <point x="-5" y="1142.0" type="qcurve" smooth="yes"/>
      <point x="-5" y="1160.0" type="line" smooth="yes"/>
      <point x="-5" y="1337.0"/>
      <point x="208.0" y="1495.0"/>
      <point x="327" y="1495.0" type="qcurve" smooth="yes"/>
      <point x="341" y="1495.0" type="line" smooth="yes"/>
      <point x="454" y="1495"/>
      <point x="642.0" y="1396.0"/>
      <point x="642" y="1261.0" type="qcurve" smooth="yes"/>
      <point x="642" y="1095.0" type="line"/>
      <point x="267" y="1095.0" type="line"/>
      <point x="267.0" y="1277" type="line" smooth="yes"/>
      <point x="267.0" y="1280.0"/>
      <point x="296" y="1226"/>
      <point x="337.0" y="1226" type="qcurve" smooth="yes"/>
      <point x="329.0" y="1226" type="line" smooth="yes"/>
      <point x="367.0" y="1226.0"/>
      <point x="381.0" y="1207"/>
      <point x="381.0" y="1194" type="qcurve" smooth="yes"/>
      <point x="381.0" y="1083" type="line" smooth="yes"/>
      <point x="381" y="1061"/>
      <point x="430" y="1029"/>
      <point x="437" y="959" type="qcurve" smooth="yes"/>
      <point x="458.0" y="874"/>
      <point x="652.0" y="617.0"/>
      <point x="652.0" y="408.0" type="qcurve" smooth="yes"/>
      <point x="652.0" y="392.0" type="line" smooth="yes"/>
      <point x="652.0" y="227.0"/>
      <point x="464" y="-7.0"/>
      <point x="335" y="-7.0" type="qcurve" smooth="yes"/>
      <point x="322" y="-7.0" type="line" smooth="yes"/>
      <point x="203.0" y="-7"/>
      <point x="6" y="164.0"/>
      <point x="6" y="321.0" type="qcurve" smooth="yes"/>
      <point x="6" y="454.0" type="line"/>
      <point x="353.0" y="452.0" type="line"/>
      <point x="353.0" y="282" type="line" smooth="yes"/>
      <point x="353.0" y="258.0"/>
      <point x="358" y="234"/>
      <point x="318.0" y="234" type="qcurve" smooth="yes"/>
      <point x="333.0" y="234" type="line" smooth="yes"/>
      <point x="308.0" y="234.0"/>
      <point x="273.0" y="289.0"/>
      <point x="273.0" y="326" type="qcurve" smooth="yes"/>
    </contour>
    <contour>
      <point x="235.0" y="-100.0" type="line"/>
      <point x="235.0" y="201.0" type="line"/>
      <point x="450.0" y="201.0" type="line"/>
      <point x="450.0" y="-100.0" type="line"/>
    </contour>
    <contour>
      <point x="226.0" y="1280.0" type="line"/>
      <point x="226.0" y="1593.0" type="line"/>
      <point x="441.0" y="1593.0" type="line"/>
      <point x="441.0" y="1280.0" type="line"/>
    </contour>
  </outline>
</glyph>
<glyph name="percent" format="2">
  <advance width="1188"/>
  <unicode hex="0025"/>
  <outline>
    <contour>
      <point x="289.0" y="666" type="line" smooth="yes"/>
      <point x="142.0" y="666"/>
      <point x="-23.0" y="850"/>
      <point x="-23.0" y="1015" type="qcurve" smooth="yes"/>
      <point x="-23.0" y="1218" type="line" smooth="yes"/>
      <point x="-23.0" y="1361"/>
      <point x="149.0" y="1526.0"/>
      <point x="287.0" y="1526.0" type="qcurve" smooth="yes"/>
      <point x="291.0" y="1526.0" type="line" smooth="yes"/>
      <point x="441.0" y="1526.0"/>
      <point x="611.0" y="1361"/>
      <point x="611.0" y="1218" type="qcurve" smooth="yes"/>
      <point x="611.0" y="1015" type="line" smooth="yes"/>
      <point x="611.0" y="850"/>
      <point x="437.0" y="666"/>
      <point x="294.0" y="666" type="qcurve" smooth="yes"/>
    </contour>
    <contour>
      <point x="294" y="936" type="line" smooth="yes"/>
      <point x="294" y="936"/>
      <point x="290" y="967"/>
      <point x="290" y="999" type="qcurve" smooth="yes"/>
      <point x="290.0" y="1216" type="line" smooth="yes"/>
      <point x="290.0" y="1231"/>
      <point x="295.0" y="1240"/>
      <point x="294.0" y="1240" type="qcurve" smooth="yes"/>
      <point x="293.0" y="1240" type="line" smooth="yes"/>
      <point x="291.0" y="1240"/>
      <point x="296.0" y="1231"/>
      <point x="296.0" y="1216" type="qcurve" smooth="yes"/>
      <point x="296" y="999" type="line" smooth="yes"/>
      <point x="296" y="967"/>
      <point x="292" y="936"/>
      <point x="293" y="936" type="qcurve" smooth="yes"/>
    </contour>
    <contour>
      <point x="889.0" y="-25.0" type="line" smooth="yes"/>
      <point x="742.0" y="-25.0"/>
      <point x="577.0" y="159"/>
      <point x="577.0" y="324" type="qcurve" smooth="yes"/>
      <point x="577.0" y="527" type="line" smooth="yes"/>
      <point x="577.0" y="670"/>
      <point x="749.0" y="835.0"/>
      <point x="887.0" y="835.0" type="qcurve" smooth="yes"/>
      <point x="891.0" y="835.0" type="line" smooth="yes"/>
      <point x="1041.0" y="835.0"/>
      <point x="1211.0" y="670"/>
      <point x="1211.0" y="527" type="qcurve" smooth="yes"/>
      <point x="1211.0" y="324" type="line" smooth="yes"/>
      <point x="1211.0" y="159"/>
      <point x="1037.0" y="-25.0"/>
      <point x="894.0" y="-25.0" type="qcurve" smooth="yes"/>
    </contour>
    <contour>
      <point x="894" y="231" type="line" smooth="yes"/>
      <point x="894" y="231"/>
      <point x="890" y="262"/>
      <point x="890" y="294" type="qcurve" smooth="yes"/>
      <point x="890.0" y="511" type="line" smooth="yes"/>
      <point x="890.0" y="526"/>
      <point x="895.0" y="535.0"/>
      <point x="894.0" y="535.0" type="qcurve" smooth="yes"/>
      <point x="893.0" y="535.0" type="line" smooth="yes"/>
      <point x="891.0" y="535.0"/>
      <point x="896.0" y="526"/>
      <point x="896.0" y="511" type="qcurve" smooth="yes"/>
      <point x="896" y="294" type="line" smooth="yes"/>
      <point x="896" y="262"/>
      <point x="892" y="231"/>
      <point x="893" y="231" type="qcurve" smooth="yes"/>
    </contour>
    <contour>
      <point x="90" y="0" type="line"/>
      <point x="860" y="1500" type="line"/>
      <point x="1080" y="1500" type="line"/>
      <point x="320" y="0" type="line"/>
    </contour>
  </outline>
</glyph>
<glyph name="ampersand" format="2">
  <advance width="840"/>
  <unicode hex="0026"/>
  <outline>
    <contour>
      <point x="298" y="526" type="line"/>
      <point x="924" y="729" type="line"/>
      <point x="987" y="581" type="line"/>
      <point x="361" y="378" type="line"/>
    </contour>
    <contour>
      <point x="553" y="708" type="line"/>
      <point x="455" y="708.0" type="line" smooth="yes"/>
      <point x="404" y="708"/>
      <point x="343.0" y="629.0"/>
      <point x="343.0" y="514.0" type="qcurve" smooth="yes"/>
      <point x="343.0" y="446" type="line" smooth="yes"/>
      <point x="343" y="296"/>
      <point x="393" y="220"/>
      <point x="413.0" y="220.0" type="qcurve" smooth="yes"/>
      <point x="454.0" y="220" type="line" smooth="yes"/>
      <point x="509.0" y="220.0"/>
      <point x="543.0" y="342.0"/>
      <point x="543.0" y="404" type="qcurve" smooth="yes"/>
      <point x="543.0" y="427.0" type="line" smooth="yes"/>
      <point x="543" y="449"/>
      <point x="541" y="491.0"/>
      <point x="540" y="511.0" type="qcurve"/>
      <point x="827" y="581.0" type="line"/>
      <point x="836" y="554.0"/>
      <point x="854" y="461.0"/>
      <point x="854" y="431.0" type="qcurve" smooth="yes"/>
      <point x="854" y="401.0" type="line" smooth="yes"/>
      <point x="854" y="212.0"/>
      <point x="631.0" y="-21.0"/>
      <point x="497" y="-23.0" type="qcurve" smooth="yes"/>
      <point x="467" y="-23.0" type="line" smooth="yes"/>
      <point x="238.0" y="-21"/>
      <point x="-6" y="194"/>
      <point x="-6.0" y="403.0" type="qcurve" smooth="yes"/>
      <point x="-6.0" y="472.0" type="line" smooth="yes"/>
      <point x="-6" y="620"/>
      <point x="126" y="779.0"/>
      <point x="256" y="805.0" type="qcurve"/>
      <point x="149" y="837.0"/>
      <point x="60.0" y="968.0"/>
      <point x="60.0" y="1049.0" type="qcurve" smooth="yes"/>
      <point x="60.0" y="1207.0" type="line" smooth="yes"/>
      <point x="60.0" y="1339.0"/>
      <point x="234" y="1512.0"/>
      <point x="356" y="1512.0" type="qcurve" smooth="yes"/>
      <point x="402" y="1512.0" type="line" smooth="yes"/>
      <point x="518" y="1512.0"/>
      <point x="666" y="1379.0"/>
      <point x="674" y="1260.0" type="qcurve" smooth="yes"/>
      <point x="674" y="1070.0" type="line"/>
      <point x="434" y="1065.0" type="line"/>
      <point x="434.0" y="1193" type="line" smooth="yes"/>
      <point x="434.0" y="1220"/>
      <point x="423.0" y="1254"/>
      <point x="416.0" y="1254" type="qcurve" smooth="yes"/>
      <point x="394.0" y="1254" type="line" smooth="yes"/>
      <point x="382.0" y="1254"/>
      <point x="372" y="1216.0"/>
      <point x="372.0" y="1161.0" type="qcurve" smooth="yes"/>
      <point x="372" y="1040.0" type="line" smooth="yes"/>
      <point x="372.0" y="963.0"/>
      <point x="446" y="934"/>
      <point x="490" y="930.0" type="qcurve" smooth="yes"/>
      <point x="546.0" y="929" type="line"/>
    </contour>
  </outline>
</glyph>
<glyph name="parenright" format="2">
  <advance width="324"/>
  <unicode hex="0029"/>
  <outline>
    <contour>
      <point x="127.0" y="-337.0" type="qcurve"/>
      <point x="-75.0" y="-161.0" type="line"/>
      <point x="-6.0" y="187.0"/>
      <point x="-6.0" y="1016.0"/>
      <point x="-72.0" y="1384.0" type="qcurve"/>
      <point x="132.0" y="1581.0" type="line"/>
      <point x="353.0" y="1127.0"/>
      <point x="353.0" y="103.0"/>
    </contour>
  </outline>
</glyph>
<glyph name="asterisk" format="2">
  <advance width="524"/>
  <unicode hex="002A"/>
  <outline>
    <contour>
      <point x="292.0" y="1017" type="line"/>
      <point x="276" y="923" type="line"/>
      <point x="-7" y="1106" type="line"/>
      <point x="46" y="1172" type="line"/>
      <point x="57" y="1176" type="line"/>
      <point x="189" y="1497" type="line"/>
      <point x="134" y="1433" type="line"/>
      <point x="136" y="1508.0" type="line"/>
      <point x="452" y="1508.0" type="line"/>
      <point x="451" y="1433" type="line"/>
      <point x="399" y="1495" type="line"/>
      <point x="531" y="1176" type="line"/>
      <point x="542" y="1172" type="line"/>
      <point x="597" y="1116" type="line"/>
      <point x="312" y="923" type="line"/>
    </contour>
  </outline>
</glyph>
<glyph name="plus" format="2">
  <advance width="250"/>
  <unicode hex="002B"/>
  <outline>
    <contour>
      <point x="548" y="592" type="line"/>
      <point x="-280" y="602" type="line"/>
      <point x="-280" y="947" type="line"/>
      <point x="548" y="937" type="line"/>
    </contour>
    <contour>
      <point x="307.0" y="1232.0" type="line"/>
      <point x="307.0" y="292.0" type="line"/>
      <point x="-46.0" y="292.0" type="line"/>
      <point x="-46.0" y="1232.0" type="line"/>
    </contour>
  </outline>
</glyph>
<glyph name="comma" format="2">
  <advance width="430"/>
  <unicode hex="002C"/>
  <outline>
    <contour>
      <point x="19.0" y="-134" type="line"/>
      <point x="56" y="148" type="line" smooth="yes"/>
      <point x="62" y="195"/>
      <point x="144.0" y="303.0"/>
      <point x="222" y="303" type="qcurve" smooth="yes"/>
      <point x="236" y="303.0" type="line" smooth="yes"/>
      <point x="289.0" y="303.0"/>
      <point x="372.0" y="231.0"/>
      <point x="372" y="177.0" type="qcurve" smooth="yes"/>
      <point x="372" y="171" type="line" smooth="yes"/>
      <point x="372" y="128"/>
      <point x="187" y="-89"/>
      <point x="139" y="-179.0" type="qcurve"/>
    </contour>
  </outline>
</glyph>
<glyph name="slash" format="2">
  <advance width="356"/>
  <unicode hex="002F"/>
  <outline>
    <contour>
      <point x="-68" y="0" type="line"/>
      <point x="72" y="1500" type="line"/>
      <point x="424" y="1500" type="line"/>
      <point x="284" y="0" type="line"/>
    </contour>
  </outline>
</glyph>
<glyph name="three" format="2">
  <advance width="635"/>
  <unicode hex="0033"/>
  <outline>
    <contour>
      <point x="265" y="638.0" type="qcurve" smooth="yes"/>
      <point x="77" y="639" type="line"/>
      <point x="77" y="884" type="line"/>
      <point x="169" y="887" type="line" smooth="yes"/>
      <point x="266" y="889"/>
      <point x="288.0" y="942.0"/>
      <point x="288" y="1037.0" type="qcurve" smooth="yes"/>
      <point x="288" y="1172.0" type="line" smooth="yes"/>
      <point x="288" y="1213"/>
      <point x="315.0" y="1243.0"/>
      <point x="338" y="1243.0" type="qcurve"/>
      <point x="343" y="1243.0" type="line"/>
      <point x="330.0" y="1243.0"/>
      <point x="349.0" y="1209"/>
      <point x="361" y="1176.0" type="qcurve" smooth="yes"/>
      <point x="366" y="1082.0" type="line"/>
      <point x="44" y="1104.0" type="line"/>
      <point x="43" y="1254.0" type="line" smooth="yes"/>
      <point x="33" y="1367"/>
      <point x="202.0" y="1505.0"/>
      <point x="321" y="1505.0" type="qcurve"/>
      <point x="319" y="1505.0" type="line"/>
      <point x="425" y="1505.0"/>
      <point x="607.0" y="1367.0"/>
      <point x="607" y="1238.0" type="qcurve" smooth="yes"/>
      <point x="607" y="1100.0" type="line" smooth="yes"/>
      <point x="607.0" y="960.0"/>
      <point x="548" y="832.0"/>
      <point x="513" y="808.0" type="qcurve"/>
      <point x="552" y="787.0"/>
      <point x="639.0" y="676.0"/>
      <point x="639.0" y="543.0" type="qcurve" smooth="yes"/>
      <point x="639.0" y="307.0" type="line" smooth="yes"/>
      <point x="639.0" y="151.0"/>
      <point x="494" y="-31.0"/>
      <point x="352" y="-31.0" type="qcurve"/>
      <point x="346" y="-31.0" type="line"/>
      <point x="200" y="-31.0"/>
      <point x="28" y="126.0"/>
      <point x="25" y="248.0" type="qcurve" smooth="yes"/>
      <point x="23" y="479.0" type="line"/>
      <point x="345" y="479.0" type="line"/>
      <point x="343.0" y="245" type="line" smooth="yes"/>
      <point x="339" y="218"/>
      <point x="292.0" y="191"/>
      <point x="308.0" y="191" type="qcurve"/>
      <point x="303.0" y="191" type="line"/>
      <point x="314.0" y="191"/>
      <point x="291.0" y="270.0"/>
      <point x="291.0" y="360" type="qcurve" smooth="yes"/>
      <point x="291" y="496.0" type="line" smooth="yes"/>
      <point x="291.0" y="609.0"/>
      <point x="282" y="635"/>
    </contour>
  </outline>
</glyph>
<glyph name="five" format="2">
  <advance width="744"/>
  <unicode hex="0035"/>
  <outline>
    <contour>
      <point x="482" y="1019" type="line" smooth="yes"/>
      <point x="646.0" y="1019.0"/>
      <point x="702.0" y="828.0"/>
      <point x="702" y="660" type="qcurve" smooth="yes"/>
      <point x="702.0" y="379" type="line" smooth="yes"/>
      <point x="702.0" y="185"/>
      <point x="539.0" y="-16.0"/>
      <point x="406" y="-16" type="qcurve" smooth="yes"/>
      <point x="390" y="-16.0" type="line" smooth="yes"/>
      <point x="238" y="-16"/>
      <point x="89" y="178"/>
      <point x="89" y="317" type="qcurve" smooth="yes"/>
      <point x="89" y="474" type="line"/>
      <point x="428" y="474.0" type="line"/>
      <point x="426.0" y="303.0" type="line" smooth="yes"/>
      <point x="418.0" y="228"/>
      <point x="409.0" y="208"/>
      <point x="392.0" y="208.0" type="qcurve" smooth="yes"/>
      <point x="391.0" y="208.0" type="line" smooth="yes"/>
      <point x="342.0" y="208.0"/>
      <point x="373.0" y="228.0"/>
      <point x="373.0" y="267.0" type="qcurve" smooth="yes"/>
      <point x="373.0" y="764.0" type="line" smooth="yes"/>
      <point x="373.0" y="809.0"/>
      <point x="376.0" y="794.0"/>
      <point x="412.0" y="794.0" type="qcurve" smooth="yes"/>
      <point x="415.0" y="794" type="line" smooth="yes"/>
      <point x="417" y="794.0"/>
      <point x="355.0" y="693"/>
      <point x="371.0" y="640" type="qcurve"/>
      <point x="62" y="642" type="line"/>
      <point x="90" y="1500" type="line"/>
      <point x="622" y="1500" type="line"/>
      <point x="622" y="1238" type="line"/>
      <point x="313" y="1238" type="line"/>
      <point x="264" y="885" type="line"/>
      <point x="286" y="936"/>
      <point x="404.0" y="1019.0"/>
      <point x="466" y="1019" type="qcurve" smooth="yes"/>
    </contour>
  </outline>
</glyph>
<glyph name="seven" format="2">
  <advance width="494"/>
  <unicode hex="0037"/>
  <outline>
    <contour>
      <point x="-27" y="1500" type="line"/>
      <point x="474" y="1500" type="line"/>
      <point x="480" y="1266" type="line"/>
      <point x="278" y="0" type="line"/>
      <point x="-87" y="0" type="line"/>
      <point x="155" y="1238" type="line"/>
      <point x="-27" y="1238" type="line"/>
    </contour>
  </outline>
</glyph>
<glyph name="semicolon" format="2">
  <advance width="450"/>
  <unicode hex="003B"/>
  <outline>
    <contour>
      <point x="225" y="697.0" type="line" smooth="yes"/>
      <point x="311" y="697.0"/>
      <point x="411" y="791"/>
      <point x="411" y="869" type="qcurve" smooth="yes"/>
      <point x="411" y="879" type="line" smooth="yes"/>
      <point x="411" y="956"/>
      <point x="313" y="1052"/>
      <point x="225" y="1052" type="qcurve" smooth="yes"/>
      <point x="222" y="1052" type="line" smooth="yes"/>
      <point x="141" y="1052"/>
      <point x="46" y="956"/>
      <point x="46" y="879" type="qcurve" smooth="yes"/>
      <point x="46" y="869" type="line" smooth="yes"/>
      <point x="46" y="790"/>
      <point x="139" y="697.0"/>
      <point x="222" y="697.0" type="qcurve" smooth="yes"/>
    </contour>
    <contour>
      <point x="14.0" y="-134" type="line"/>
      <point x="41" y="148" type="line" smooth="yes"/>
      <point x="46" y="195"/>
      <point x="144" y="303"/>
      <point x="217" y="303" type="qcurve" smooth="yes"/>
      <point x="231" y="303.0" type="line" smooth="yes"/>
      <point x="294.0" y="303.0"/>
      <point x="380.0" y="213.0"/>
      <point x="380" y="159.0" type="qcurve" smooth="yes"/>
      <point x="380" y="153" type="line" smooth="yes"/>
      <point x="380" y="110"/>
      <point x="196" y="-89"/>
      <point x="134" y="-179.0" type="qcurve"/>
    </contour>
  </outline>
</glyph>
<glyph name="equal" format="2">
  <advance width="1000"/>
  <unicode hex="003D"/>
  <outline>
    <contour>
      <point x="952" y="280" type="line"/>
      <point x="46" y="280" type="line"/>
      <point x="46" y="565" type="line"/>
      <point x="953" y="565" type="line"/>
    </contour>
    <contour>
      <point x="953" y="750" type="line"/>
      <point x="46" y="750" type="line"/>
      <point x="46" y="1035" type="line"/>
      <point x="953" y="1035" type="line"/>
    </contour>
  </outline>
</glyph>
<glyph name="greater" format="2">
  <advance width="250"/>
  <unicode hex="003E"/>
  <outline>
    <contour>
      <point x="492.0" y="877.0" type="line"/>
      <point x="492.0" y="566.0" type="line"/>
      <point x="-248.0" y="170.0" type="line"/>
      <point x="-248.0" y="503.0" type="line"/>
      <point x="100.0" y="711.0" type="line"/>
      <point x="-248.0" y="946.0" type="line"/>
      <point x="-248.0" y="1266.0" type="line"/>
    </contour>
  </outline>
</glyph>
<glyph name="question" format="2">
  <advance width="606"/>
  <unicode hex="003F"/>
  <outline>
    <contour>
      <point x="262.0" y="-39" type="line" smooth="yes"/>
      <point x="365" y="-39"/>
      <point x="481" y="64"/>
      <point x="481" y="147" type="qcurve" smooth="yes"/>
      <point x="481" y="159" type="line" smooth="yes"/>
      <point x="481" y="242"/>
      <point x="366" y="348"/>
      <point x="262.0" y="348" type="qcurve" smooth="yes"/>
      <point x="256" y="348" type="line" smooth="yes"/>
      <point x="160" y="348"/>
      <point x="52" y="242"/>
      <point x="52" y="159" type="qcurve" smooth="yes"/>
      <point x="52" y="147" type="line" smooth="yes"/>
      <point x="52" y="62"/>
      <point x="158" y="-39"/>
      <point x="256" y="-39" type="qcurve" smooth="yes"/>
    </contour>
    <contour>
      <point x="416" y="395" type="line"/>
      <point x="76" y="395" type="line"/>
      <point x="76" y="886" type="line"/>
      <point x="179" y="858"/>
      <point x="333.0" y="1022.0"/>
      <point x="333.0" y="1136.0" type="qcurve" smooth="yes"/>
      <point x="333.0" y="1200.0" type="line" smooth="yes"/>
      <point x="333.0" y="1272.0"/>
      <point x="323.0" y="1275.0"/>
      <point x="303.0" y="1275.0" type="qcurve" smooth="yes"/>
      <point x="279" y="1275" type="line" smooth="yes"/>
      <point x="274" y="1275"/>
      <point x="257.0" y="1243.0"/>
      <point x="258" y="1180" type="qcurve" smooth="yes"/>
      <point x="259" y="1027" type="line"/>
      <point x="-55" y="1030.0" type="line"/>
      <point x="-55" y="1201.0" type="line" smooth="yes"/>
      <point x="-55" y="1343"/>
      <point x="130" y="1523.0"/>
      <point x="290" y="1523.0" type="qcurve" smooth="yes"/>
      <point x="322.0" y="1523.0" type="line" smooth="yes"/>
      <point x="484.0" y="1523.0"/>
      <point x="679.0" y="1391.0"/>
      <point x="679.0" y="1161.0" type="qcurve" smooth="yes"/>
      <point x="679.0" y="1080.0" type="line" smooth="yes"/>
      <point x="679.0" y="853.0"/>
      <point x="538.0" y="647"/>
      <point x="416.0" y="625" type="qcurve"/>
    </contour>
  </outline>
</glyph>
<glyph name="A" format="2">
  <advance width="510"/>
  <unicode hex="0041"/>
  <outline>
    <contour>
      <point x="380" y="268" type="line"/>
      <point x="100" y="268" type="line"/>
      <point x="100" y="487" type="line"/>
      <point x="380" y="487" type="line"/>
    </contour>
    <contour>
      <point x="440" y="1500" type="line"/>
      <point x="550" y="0" type="line"/>
      <point x="193" y="0.0" type="line"/>
      <point x="263" y="907" type="line"/>
      <point x="241" y="907" type="line"/>
      <point x="339" y="0.0" type="line"/>
      <point x="-40" y="0" type="line"/>
      <point x="80" y="1500" type="line"/>
    </contour>
  </outline>
</glyph>
<glyph name="B" format="2">
  <advance width="781"/>
  <unicode hex="0042"/>
  <outline>
    <contour>
      <point x="66" y="0" type="line"/>
      <point x="66" y="1500" type="line"/>
      <point x="458" y="1500" type="line"/>
      <point x="458" y="0" type="line"/>
    </contour>
    <contour>
      <point x="501" y="781" type="line"/>
      <point x="604" y="781"/>
      <point x="776" y="648"/>
      <point x="776.0" y="494" type="qcurve" smooth="yes"/>
      <point x="776.0" y="326" type="line" smooth="yes"/>
      <point x="776.0" y="166"/>
      <point x="610.0" y="0.0"/>
      <point x="456" y="0" type="qcurve" smooth="yes"/>
      <point x="275" y="0" type="line"/>
      <point x="275" y="219.0" type="line"/>
      <point x="263" y="219.0" type="line" smooth="yes"/>
      <point x="338.0" y="219.0"/>
      <point x="387" y="310"/>
      <point x="387" y="377.0" type="qcurve" smooth="yes"/>
      <point x="387" y="498.0" type="line" smooth="yes"/>
      <point x="387" y="582"/>
      <point x="333.0" y="673.0"/>
      <point x="257" y="673.0" type="qcurve" smooth="yes"/>
      <point x="275" y="673.0" type="line"/>
      <point x="275" y="853.0" type="line"/>
      <point x="330" y="853.0" type="line" smooth="yes"/>
      <point x="371.0" y="853.0"/>
      <point x="391.0" y="918"/>
      <point x="391.0" y="973.0" type="qcurve" smooth="yes"/>
      <point x="391.0" y="1180.0" type="line" smooth="yes"/>
      <point x="391.0" y="1239.0"/>
      <point x="357.0" y="1270.0"/>
      <point x="344" y="1270.0" type="qcurve" smooth="yes"/>
      <point x="275" y="1270.0" type="line"/>
      <point x="275" y="1500" type="line"/>
      <point x="455" y="1500" type="line" smooth="yes"/>
      <point x="616.0" y="1500.0"/>
      <point x="773" y="1354"/>
      <point x="773.0" y="1226" type="qcurve" smooth="yes"/>
      <point x="773" y="1038" type="line" smooth="yes"/>
      <point x="773.0" y="895.0"/>
      <point x="626.0" y="794.0"/>
      <point x="454" y="794" type="qcurve"/>
    </contour>
  </outline>
</glyph>
<glyph name="C" format="2">
  <advance width="780"/>
  <unicode hex="0043"/>
  <outline>
    <contour>
      <point x="407.0" y="274" type="line" smooth="yes"/>
      <point x="390.0" y="274.0"/>
      <point x="309.0" y="350"/>
      <point x="301" y="392" type="qcurve" smooth="yes"/>
      <point x="299" y="637.0" type="line"/>
      <point x="701.0" y="642.0" type="line"/>
      <point x="698.0" y="293.0" type="line" smooth="yes"/>
      <point x="694" y="158"/>
      <point x="560" y="-8.0"/>
      <point x="428" y="-8.0" type="qcurve" smooth="yes"/>
      <point x="394" y="-8.0" type="line" smooth="yes"/>
      <point x="245" y="-8.0"/>
      <point x="78" y="208.0"/>
      <point x="78" y="387.0" type="qcurve" smooth="yes"/>
      <point x="78" y="1110.0" type="line" smooth="yes"/>
      <point x="78" y="1288.0"/>
      <point x="249" y="1502.0"/>
      <point x="373" y="1502.0" type="qcurve" smooth="yes"/>
      <point x="412" y="1502.0" type="line" smooth="yes"/>
      <point x="565" y="1502.0"/>
      <point x="706" y="1344"/>
      <point x="705" y="1211.0" type="qcurve" smooth="yes"/>
      <point x="711" y="857.0" type="line"/>
      <point x="305" y="867.0" type="line"/>
      <point x="307.0" y="1162" type="line" smooth="yes"/>
      <point x="321.0" y="1198.0"/>
      <point x="350" y="1218"/>
      <point x="408.0" y="1218" type="qcurve" smooth="yes"/>
      <point x="395.0" y="1218" type="line" smooth="yes"/>
      <point x="443.0" y="1218.0"/>
      <point x="529.0" y="1260.0"/>
      <point x="529.0" y="1245" type="qcurve" smooth="yes"/>
      <point x="529.0" y="245" type="line" smooth="yes"/>
      <point x="529.0" y="240.0"/>
      <point x="423.0" y="274"/>
      <point x="373.0" y="274" type="qcurve" smooth="yes"/>
    </contour>
  </outline>
</glyph>
<glyph name="D" format="2">
  <advance width="781"/>
  <unicode hex="0044"/>
  <outline>
    <contour>
      <point x="24" y="0" type="line"/>
      <point x="24" y="1500" type="line"/>
      <point x="420" y="1500" type="line"/>
      <point x="420" y="0" type="line"/>
    </contour>
    <contour>
      <point x="377.0" y="252" type="line" smooth="yes"/>
      <point x="346" y="252"/>
      <point x="273.0" y="290"/>
      <point x="273.0" y="312" type="qcurve" smooth="yes"/>
      <point x="273.0" y="1186" type="line" smooth="yes"/>
      <point x="273.0" y="1202"/>
      <point x="351.0" y="1241"/>
      <point x="381.0" y="1242" type="qcurve" smooth="yes"/>
      <point x="236.0" y="1242" type="line"/>
      <point x="236.0" y="1500.0" type="line"/>
      <point x="386" y="1500.0" type="line" smooth="yes"/>
      <point x="548" y="1500.0"/>
      <point x="707" y="1303"/>
      <point x="707" y="1120.0" type="qcurve" smooth="yes"/>
      <point x="707" y="385.0" type="line" smooth="yes"/>
      <point x="707" y="197"/>
      <point x="546" y="0.0"/>
      <point x="409" y="0.0" type="qcurve" smooth="yes"/>
      <point x="236.0" y="0.0" type="line"/>
      <point x="236.0" y="252" type="line"/>
    </contour>
  </outline>
</glyph>
<glyph name="E" format="2">
  <advance width="660"/>
  <unicode hex="0045"/>
  <outline>
    <contour>
      <point x="24" y="0" type="line"/>
      <point x="24" y="1500" type="line"/>
      <point x="434" y="1500" type="line"/>
      <point x="434" y="0" type="line"/>
    </contour>
    <contour>
      <point x="560" y="652" type="line"/>
      <point x="225" y="652" type="line"/>
      <point x="225" y="936" type="line"/>
      <point x="560" y="936" type="line"/>
    </contour>
    <contour>
      <point x="620" y="1216" type="line"/>
      <point x="225" y="1216" type="line"/>
      <point x="225" y="1500" type="line"/>
      <point x="620" y="1500" type="line"/>
    </contour>
    <contour>
      <point x="620" y="0" type="line"/>
      <point x="225" y="0" type="line"/>
      <point x="225" y="284" type="line"/>
      <point x="620" y="284" type="line"/>
    </contour>
  </outline>
</glyph>
<glyph name="F" format="2">
  <advance width="615"/>
  <unicode hex="0046"/>
  <outline>
    <contour>
      <point x="24" y="0" type="line"/>
      <point x="24" y="1500" type="line"/>
      <point x="434" y="1500" type="line"/>
      <point x="434" y="0" type="line"/>
    </contour>
    <contour>
      <point x="570" y="608" type="line"/>
      <point x="224" y="608" type="line"/>
      <point x="224" y="892" type="line"/>
      <point x="570" y="892" type="line"/>
    </contour>
    <contour>
      <point x="580" y="1216" type="line"/>
      <point x="224" y="1216" type="line"/>
      <point x="224" y="1500" type="line"/>
      <point x="580" y="1500" type="line"/>
    </contour>
  </outline>
</glyph>
<glyph name="G" format="2">
  <advance width="711"/>
  <unicode hex="0047"/>
  <outline>
    <contour>
      <point x="368.0" y="217.0" type="line" smooth="yes"/>
      <point x="349.0" y="217.0"/>
      <point x="266.0" y="234.0"/>
      <point x="252.0" y="254" type="qcurve" smooth="yes"/>
      <point x="247.0" y="531.0" type="line"/>
      <point x="413" y="530.0" type="line"/>
      <point x="413" y="774.0" type="line"/>
      <point x="623" y="775.0" type="line"/>
      <point x="622.0" y="279.0" type="line" smooth="yes"/>
      <point x="622" y="148"/>
      <point x="501" y="-6.0"/>
      <point x="390" y="-6.0" type="qcurve" smooth="yes"/>
      <point x="345" y="-6.0" type="line" smooth="yes"/>
      <point x="230" y="-6.0"/>
      <point x="78" y="215.0"/>
      <point x="78" y="391.0" type="qcurve" smooth="yes"/>
      <point x="78" y="1112.0" type="line" smooth="yes"/>
      <point x="78" y="1280.0"/>
      <point x="226.0" y="1503.0"/>
      <point x="325" y="1503.0" type="qcurve" smooth="yes"/>
      <point x="378" y="1503.0" type="line" smooth="yes"/>
      <point x="484.0" y="1503.0"/>
      <point x="620" y="1354.0"/>
      <point x="620" y="1211.0" type="qcurve" smooth="yes"/>
      <point x="621" y="956.0" type="line"/>
      <point x="277" y="956.0" type="line"/>
      <point x="279.0" y="1156.0" type="line" smooth="yes"/>
      <point x="301" y="1192"/>
      <point x="333.0" y="1260.0"/>
      <point x="394.0" y="1260.0" type="qcurve" smooth="yes"/>
      <point x="368.0" y="1260.0" type="line" smooth="yes"/>
      <point x="440.0" y="1260.0"/>
      <point x="508.0" y="1243.0"/>
      <point x="508.0" y="1239.0" type="qcurve" smooth="yes"/>
      <point x="508.0" y="255.0" type="line" smooth="yes"/>
      <point x="508.0" y="237.0"/>
      <point x="423.0" y="217"/>
      <point x="347.0" y="217.0" type="qcurve" smooth="yes"/>
    </contour>
  </outline>
</glyph>
<glyph name="H" format="2">
  <advance width="762"/>
  <unicode hex="0048"/>
  <outline>
    <contour>
      <point x="36" y="0" type="line"/>
      <point x="36" y="1500" type="line"/>
      <point x="446" y="1500" type="line"/>
      <point x="446" y="0" type="line"/>
    </contour>
    <contour>
      <point x="316" y="0" type="line"/>
      <point x="316" y="1500" type="line"/>
      <point x="726" y="1500" type="line"/>
      <point x="726" y="0" type="line"/>
    </contour>
    <contour>
      <point x="526" y="654" type="line"/>
      <point x="236" y="654" type="line"/>
      <point x="236" y="934" type="line"/>
      <point x="526" y="934" type="line"/>
    </contour>
  </outline>
</glyph>
<glyph name="I" format="2">
  <advance width="190"/>
  <unicode hex="0049"/>
  <outline>
    <contour>
      <point x="-109" y="0" type="line"/>
      <point x="-109" y="1500" type="line"/>
      <point x="299" y="1500" type="line"/>
      <point x="299" y="0" type="line"/>
    </contour>
    <contour>
      <point x="-183" y="0" type="line"/>
      <point x="367" y="0" type="line"/>
      <point x="367" y="294" type="line"/>
      <point x="-183" y="294" type="line"/>
    </contour>
    <contour>
      <point x="-183" y="1206" type="line"/>
      <point x="367" y="1206" type="line"/>
      <point x="367" y="1500" type="line"/>
      <point x="-183" y="1500" type="line"/>
    </contour>
  </outline>
</glyph>
<glyph name="J" format="2">
  <advance width="584"/>
  <unicode hex="004A"/>
  <outline>
    <contour>
      <point x="566.0" y="284.0" type="line" smooth="yes"/>
      <point x="566.0" y="96.0"/>
      <point x="391" y="-7"/>
      <point x="261" y="-7" type="qcurve" smooth="yes"/>
      <point x="266" y="-7" type="line" smooth="yes"/>
      <point x="118" y="-7"/>
      <point x="-20" y="146.0"/>
      <point x="-25" y="300" type="qcurve" smooth="yes"/>
      <point x="-24" y="462" type="line"/>
      <point x="288" y="450.0" type="line"/>
      <point x="288.0" y="299" type="line" smooth="yes"/>
      <point x="288.0" y="283.0"/>
      <point x="256.0" y="266.0"/>
      <point x="229.0" y="266" type="qcurve" smooth="yes"/>
      <point x="227.0" y="266" type="line" smooth="yes"/>
      <point x="198.0" y="266.0"/>
      <point x="175.0" y="198.0"/>
      <point x="175.0" y="218.0" type="qcurve" smooth="yes"/>
      <point x="175" y="1510.0" type="line"/>
      <point x="566" y="1500" type="line"/>
    </contour>
  </outline>
</glyph>
<glyph name="K" format="2">
  <advance width="603"/>
  <unicode hex="004B"/>
  <outline>
    <contour>
      <point x="24" y="0" type="line"/>
      <point x="24" y="1500" type="line"/>
      <point x="434" y="1500" type="line"/>
      <point x="427" y="1120" type="line"/>
      <point x="490" y="1356" type="line"/>
      <point x="302" y="1500" type="line"/>
      <point x="692" y="1500" type="line"/>
      <point x="556" y="801" type="line"/>
      <point x="484" y="827" type="line"/>
      <point x="427" y="611" type="line"/>
      <point x="434" y="0" type="line"/>
    </contour>
    <contour>
      <point x="114" y="656" type="line"/>
      <point x="356" y="1029" type="line"/>
      <point x="715" y="0" type="line"/>
      <point x="253" y="0" type="line"/>
    </contour>
  </outline>
</glyph>
<glyph name="L" format="2">
  <advance width="539"/>
  <unicode hex="004C"/>
  <outline>
    <contour>
      <point x="23" y="0" type="line"/>
      <point x="23" y="1500" type="line"/>
      <point x="439" y="1500" type="line"/>
      <point x="439" y="0" type="line"/>
    </contour>
    <contour>
      <point x="512" y="0" type="line"/>
      <point x="236" y="0" type="line"/>
      <point x="236" y="284" type="line"/>
      <point x="512" y="284" type="line"/>
    </contour>
  </outline>
</glyph>
<glyph name="M" format="2">
  <advance width="978"/>
  <unicode hex="004D"/>
  <outline>
    <contour>
      <point x="24" y="0" type="line"/>
      <point x="24" y="1500" type="line"/>
      <point x="513" y="1500" type="line"/>
      <point x="527" y="616" type="line"/>
      <point x="520" y="616" type="line"/>
      <point x="505" y="1500" type="line"/>
      <point x="964" y="1500" type="line"/>
      <point x="964" y="0" type="line"/>
      <point x="624" y="0" type="line"/>
      <point x="624" y="725" type="line"/>
      <point x="657" y="0" type="line"/>
      <point x="349" y="0" type="line"/>
      <point x="378" y="725" type="line"/>
      <point x="378" y="0" type="line"/>
    </contour>
  </outline>
</glyph>
<glyph name="N" format="2">
  <advance width="708"/>
  <unicode hex="004E"/>
  <outline>
    <contour>
      <point x="24" y="0" type="line"/>
      <point x="24" y="1500" type="line"/>
      <point x="388" y="1500" type="line"/>
      <point x="344" y="901" type="line"/>
      <point x="344" y="1500" type="line"/>
      <point x="684" y="1500" type="line"/>
      <point x="684" y="0" type="line"/>
      <point x="305" y="0" type="line"/>
      <point x="305" y="53" type="line"/>
      <point x="364" y="638" type="line"/>
      <point x="364" y="0" type="line"/>
    </contour>
  </outline>
</glyph>
<glyph name="O" format="2">
  <advance width="763"/>
  <unicode hex="004F"/>
  <outline>
    <contour>
      <point x="381" y="-8.0" type="line" smooth="yes"/>
      <point x="247.0" y="-8.0"/>
      <point x="74" y="210.0"/>
      <point x="74" y="386.0" type="qcurve" smooth="yes"/>
      <point x="74" y="1101.0" type="line" smooth="yes"/>
      <point x="74" y="1285.0"/>
      <point x="251.0" y="1503.0"/>
      <point x="379" y="1503.0" type="qcurve" smooth="yes"/>
      <point x="381" y="1503.0" type="line" smooth="yes"/>
      <point x="523" y="1503.0"/>
      <point x="689.0" y="1285.0"/>
      <point x="689" y="1120.0" type="qcurve" smooth="yes"/>
      <point x="689" y="374.0" type="line" smooth="yes"/>
      <point x="689.0" y="210.0"/>
      <point x="524.0" y="-8.0"/>
      <point x="383" y="-8.0" type="qcurve" smooth="yes"/>
    </contour>
    <contour>
      <point x="382.0" y="242.0" type="line" smooth="yes"/>
      <point x="314.0" y="242.0"/>
      <point x="242.0" y="195.0"/>
      <point x="242.0" y="253" type="qcurve" smooth="yes"/>
      <point x="242.0" y="1231" type="line" smooth="yes"/>
      <point x="242.0" y="1293.0"/>
      <point x="314.0" y="1248"/>
      <point x="382.0" y="1248.0" type="qcurve" smooth="yes"/>
      <point x="384.0" y="1248.0" type="line" smooth="yes"/>
      <point x="447.0" y="1248"/>
      <point x="521.0" y="1313.0"/>
      <point x="521.0" y="1244" type="qcurve" smooth="yes"/>
      <point x="521.0" y="245" type="line" smooth="yes"/>
      <point x="521.0" y="195.0"/>
      <point x="438.0" y="242.0"/>
      <point x="384.0" y="242.0" type="qcurve" smooth="yes"/>
    </contour>
  </outline>
</glyph>
<glyph name="P" format="2">
  <advance width="730"/>
  <unicode hex="0050"/>
  <outline>
    <contour>
      <point x="23" y="0" type="line"/>
      <point x="23" y="1500" type="line"/>
      <point x="433" y="1500" type="line"/>
      <point x="433" y="0" type="line"/>
    </contour>
    <contour>
      <point x="406" y="505.0" type="qcurve" smooth="yes"/>
      <point x="386.0" y="505" type="line"/>
      <point x="386.0" y="755.0" type="line"/>
      <point x="344" y="755.0" type="line" smooth="yes"/>
      <point x="318.0" y="755.0"/>
      <point x="317.0" y="750.0"/>
      <point x="317.0" y="814.0" type="qcurve" smooth="yes"/>
      <point x="317.0" y="1154.0" type="line" smooth="yes"/>
      <point x="317.0" y="1198.0"/>
      <point x="347.0" y="1242.0"/>
      <point x="341" y="1242.0" type="qcurve" smooth="yes"/>
      <point x="386.0" y="1242.0" type="line"/>
      <point x="386" y="1500" type="line"/>
      <point x="455" y="1500.0" type="line" smooth="yes"/>
      <point x="607.0" y="1500.0"/>
      <point x="734" y="1343"/>
      <point x="734" y="1219.0" type="qcurve" smooth="yes"/>
      <point x="734" y="796.0" type="line" smooth="yes"/>
      <point x="734" y="647"/>
      <point x="582.0" y="505.0"/>
    </contour>
  </outline>
</glyph>
<glyph name="Q" format="2">
  <advance width="763"/>
  <unicode hex="0051"/>
  <outline>
    <contour>
      <point x="381" y="12.0" type="line" smooth="yes"/>
      <point x="247" y="12"/>
      <point x="74" y="200.0"/>
      <point x="74" y="396.0" type="qcurve" smooth="yes"/>
      <point x="74" y="1101.0" type="line" smooth="yes"/>
      <point x="74" y="1285.0"/>
      <point x="251.0" y="1503.0"/>
      <point x="379" y="1503.0" type="qcurve" smooth="yes"/>
      <point x="381" y="1503.0" type="line" smooth="yes"/>
      <point x="523" y="1503.0"/>
      <point x="689.0" y="1285.0"/>
      <point x="689" y="1120.0" type="qcurve" smooth="yes"/>
      <point x="689" y="384.0" type="line" smooth="yes"/>
      <point x="689.0" y="200.0"/>
      <point x="514.0" y="12.0"/>
      <point x="383" y="12.0" type="qcurve" smooth="yes"/>
    </contour>
    <contour>
      <point x="387.0" y="242.0" type="line" smooth="yes"/>
      <point x="319" y="242"/>
      <point x="247.0" y="185.0"/>
      <point x="247.0" y="243" type="qcurve" smooth="yes"/>
      <point x="247.0" y="1231" type="line" smooth="yes"/>
      <point x="247.0" y="1293"/>
      <point x="319.0" y="1248"/>
      <point x="387.0" y="1248.0" type="qcurve" smooth="yes"/>
      <point x="389.0" y="1248.0" type="line" smooth="yes"/>
      <point x="452.0" y="1248"/>
      <point x="526.0" y="1313.0"/>
      <point x="526.0" y="1244" type="qcurve" smooth="yes"/>
      <point x="526.0" y="235" type="line" smooth="yes"/>
      <point x="526.0" y="185.0"/>
      <point x="443" y="242"/>
      <point x="389.0" y="242.0" type="qcurve" smooth="yes"/>
    </contour>
    <contour>
      <point x="303" y="238" type="line"/>
      <point x="766" y="143" type="line"/>
      <point x="766" y="-122" type="line"/>
      <point x="304" y="8" type="line"/>
    </contour>
  </outline>
</glyph>
<glyph name="R" format="2">
  <advance width="639"/>
  <unicode hex="0052"/>
  <outline>
    <contour>
      <point x="24" y="0" type="line"/>
      <point x="24" y="1500" type="line"/>
      <point x="420" y="1500" type="line"/>
      <point x="420" y="0" type="line"/>
    </contour>
    <contour>
      <point x="480" y="633" type="qcurve" smooth="yes"/>
      <point x="240" y="633" type="line"/>
      <point x="240" y="858" type="line"/>
      <point x="320.0" y="858" type="line" smooth="yes"/>
      <point x="312.0" y="858.0"/>
      <point x="313.0" y="866"/>
      <point x="313.0" y="868" type="qcurve" smooth="yes"/>
      <point x="313.0" y="1214" type="line" smooth="yes"/>
      <point x="313.0" y="1227"/>
      <point x="313.0" y="1258.0"/>
      <point x="310.0" y="1258" type="qcurve" smooth="yes"/>
      <point x="240" y="1258" type="line"/>
      <point x="240" y="1500" type="line"/>
      <point x="507" y="1500" type="line" smooth="yes"/>
      <point x="601.0" y="1500.0"/>
      <point x="736.0" y="1390.0"/>
      <point x="736" y="1272" type="qcurve" smooth="yes"/>
      <point x="736" y="838" type="line" smooth="yes"/>
      <point x="736.0" y="733.0"/>
      <point x="628.0" y="633.0"/>
    </contour>
    <contour>
      <point x="547" y="813" type="line"/>
      <point x="723" y="0" type="line"/>
      <point x="325" y="0" type="line"/>
      <point x="224" y="674" type="line"/>
    </contour>
  </outline>
</glyph>
<glyph name="S" format="2">
  <advance width="660"/>
  <unicode hex="0053"/>
  <outline>
    <contour>
      <point x="263.0" y="362.0" type="line" smooth="yes"/>
      <point x="263.0" y="398.0"/>
      <point x="218" y="482"/>
      <point x="171" y="593" type="qcurve" smooth="yes"/>
      <point x="82" y="739"/>
      <point x="15" y="988.0"/>
      <point x="15" y="1142.0" type="qcurve" smooth="yes"/>
      <point x="15" y="1190.0" type="line" smooth="yes"/>
      <point x="15" y="1345.0"/>
      <point x="206.0" y="1503.0"/>
      <point x="325" y="1503.0" type="qcurve" smooth="yes"/>
      <point x="339" y="1503.0" type="line" smooth="yes"/>
      <point x="452" y="1503.0"/>
      <point x="634.0" y="1404.0"/>
      <point x="622" y="1291.0" type="qcurve" smooth="yes"/>
      <point x="622" y="1095.0" type="line"/>
      <point x="267" y="1095.0" type="line"/>
      <point x="267.0" y="1307" type="line" smooth="yes"/>
      <point x="267.0" y="1288.0"/>
      <point x="294.0" y="1234.0"/>
      <point x="335.0" y="1234" type="qcurve" smooth="yes"/>
      <point x="327.0" y="1234" type="line" smooth="yes"/>
      <point x="365.0" y="1234.0"/>
      <point x="391.0" y="1215.0"/>
      <point x="391.0" y="1224" type="qcurve" smooth="yes"/>
      <point x="391.0" y="1103" type="line" smooth="yes"/>
      <point x="391" y="1081"/>
      <point x="430" y="1009"/>
      <point x="437" y="939" type="qcurve" smooth="yes"/>
      <point x="458.0" y="854"/>
      <point x="632.0" y="617.0"/>
      <point x="632.0" y="408.0" type="qcurve" smooth="yes"/>
      <point x="632.0" y="402.0" type="line" smooth="yes"/>
      <point x="632" y="227"/>
      <point x="464.0" y="-7.0"/>
      <point x="335" y="-7.0" type="qcurve" smooth="yes"/>
      <point x="322" y="-7.0" type="line" smooth="yes"/>
      <point x="203.0" y="-7.0"/>
      <point x="27" y="164.0"/>
      <point x="30" y="321.0" type="qcurve" smooth="yes"/>
      <point x="30" y="454.0" type="line"/>
      <point x="353.0" y="452.0" type="line"/>
      <point x="353.0" y="292" type="line" smooth="yes"/>
      <point x="353" y="258"/>
      <point x="358.0" y="234"/>
      <point x="318.0" y="234" type="qcurve" smooth="yes"/>
      <point x="333.0" y="234" type="line" smooth="yes"/>
      <point x="308.0" y="234.0"/>
      <point x="263.0" y="289.0"/>
      <point x="263.0" y="336" type="qcurve" smooth="yes"/>
    </contour>
  </outline>
</glyph>
<glyph name="T" format="2">
  <advance width="566"/>
  <unicode hex="0054"/>
  <outline>
    <contour>
      <point x="88" y="0" type="line"/>
      <point x="88" y="1460" type="line"/>
      <point x="483" y="1460" type="line"/>
      <point x="483" y="0" type="line"/>
    </contour>
    <contour>
      <point x="578" y="1216" type="line"/>
      <point x="-12" y="1216" type="line"/>
      <point x="-12" y="1500" type="line"/>
      <point x="578" y="1500" type="line"/>
    </contour>
  </outline>
</glyph>
<glyph name="V" format="2">
  <advance width="660"/>
  <unicode hex="0056"/>
  <outline>
    <contour>
      <point x="165" y="0" type="line"/>
      <point x="-60" y="1500" type="line"/>
      <point x="281.0" y="1500" type="line"/>
      <point x="340.0" y="756" type="line"/>
      <point x="392.0" y="1500" type="line"/>
      <point x="740" y="1500" type="line"/>
      <point x="465" y="0" type="line"/>
    </contour>
  </outline>
</glyph>
<glyph name="W" format="2">
  <advance width="1002"/>
  <unicode hex="0057"/>
  <outline>
    <contour>
      <point x="221" y="0" type="line"/>
      <point x="-4" y="1500" type="line"/>
      <point x="365" y="1500" type="line"/>
      <point x="411" y="925" type="line"/>
      <point x="379" y="1500" type="line"/>
      <point x="629" y="1500" type="line"/>
      <point x="595" y="933" type="line"/>
      <point x="621" y="1500" type="line"/>
      <point x="956" y="1500" type="line"/>
      <point x="741" y="0" type="line"/>
      <point x="510.0" y="0.0" type="line"/>
      <point x="495.0" y="574" type="line"/>
      <point x="481.0" y="576" type="line"/>
      <point x="452.0" y="0.0" type="line"/>
    </contour>
  </outline>
</glyph>
<glyph name="X" format="2">
  <advance width="420"/>
  <unicode hex="0058"/>
  <outline>
    <contour>
      <point x="-80" y="0" type="line"/>
      <point x="59" y="875" type="line"/>
      <point x="90" y="848" type="line"/>
      <point x="147" y="1500" type="line"/>
      <point x="482" y="1500" type="line"/>
      <point x="401" y="716" type="line"/>
      <point x="364" y="735" type="line"/>
      <point x="255" y="0" type="line"/>
    </contour>
    <contour>
      <point x="111" y="0" type="line"/>
      <point x="76" y="608" type="line"/>
      <point x="69" y="654" type="line"/>
      <point x="-67" y="1500" type="line"/>
      <point x="335" y="1500" type="line"/>
      <point x="346" y="934" type="line"/>
      <point x="353" y="900" type="line"/>
      <point x="500" y="0" type="line"/>
    </contour>
  </outline>
</glyph>
<glyph name="Y" format="2">
  <advance width="590"/>
  <unicode hex="0059"/>
  <outline>
    <contour>
      <point x="155" y="500" type="line"/>
      <point x="-80" y="1500" type="line"/>
      <point x="310" y="1500" type="line"/>
      <point x="295" y="1096" type="line"/>
      <point x="281" y="1500" type="line"/>
      <point x="670" y="1500" type="line"/>
      <point x="433" y="500" type="line"/>
    </contour>
    <contour>
      <point x="97" y="0" type="line"/>
      <point x="97" y="670" type="line"/>
      <point x="495" y="670" type="line"/>
      <point x="495" y="0" type="line"/>
    </contour>
  </outline>
</glyph>
<glyph name="Z" format="2">
  <advance width="538"/>
  <unicode hex="005A"/>
  <outline>
    <contour>
      <point x="500" y="0" type="line"/>
      <point x="14" y="0" type="line"/>
      <point x="9" y="279" type="line"/>
      <point x="108" y="1216" type="line"/>
      <point x="4" y="1216" type="line"/>
      <point x="4" y="1500" type="line"/>
      <point x="500" y="1500" type="line"/>
      <point x="500" y="1226" type="line"/>
      <point x="403" y="284" type="line"/>
      <point x="500" y="284" type="line"/>
    </contour>
  </outline>
</glyph>
<glyph name="bracketleft" format="2">
  <advance width="324"/>
  <unicode hex="005B"/>
  <outline>
    <contour>
      <point x="46" y="-280" type="line"/>
      <point x="46" y="1500" type="line"/>
      <point x="380" y="1500" type="line"/>
      <point x="380" y="-280" type="line"/>
    </contour>
    <contour>
      <point x="476" y="-280" type="line"/>
      <point x="239" y="-280" type="line"/>
      <point x="239" y="-40" type="line"/>
      <point x="476" y="-40" type="line"/>
    </contour>
    <contour>
      <point x="476" y="1260" type="line"/>
      <point x="234" y="1260" type="line"/>
      <point x="234" y="1500" type="line"/>
      <point x="476" y="1500" type="line"/>
    </contour>
  </outline>
</glyph>
<glyph name="bracketright" format="2">
  <advance width="324"/>
  <unicode hex="005D"/>
  <outline>
    <contour>
      <point x="278" y="-280" type="line"/>
      <point x="-56" y="-280" type="line"/>
      <point x="-56" y="1500" type="line"/>
      <point x="278" y="1500" type="line"/>
    </contour>
    <contour>
      <point x="-152" y="-280" type="line"/>
      <point x="-152" y="-40" type="line"/>
      <point x="85" y="-40" type="line"/>
      <point x="85" y="-280" type="line"/>
    </contour>
    <contour>
      <point x="-152" y="1260" type="line"/>
      <point x="-152" y="1500" type="line"/>
      <point x="90" y="1500" type="line"/>
      <point x="90" y="1260" type="line"/>
    </contour>
  </outline>
</glyph>
<glyph name="grave" format="2">
  <advance width="500"/>
  <unicode hex="0060"/>
  <outline>
    <contour>
      <point x="411.0" y="1419.0" type="line"/>
      <point x="582.0" y="1036.0" type="line"/>
      <point x="220.0" y="1036.0" type="line"/>
      <point x="1.0" y="1419.0" type="line"/>
    </contour>
  </outline>
</glyph>
<glyph name="a" format="2">
  <advance width="587"/>
  <unicode hex="0061"/>
  <outline>
    <contour>
      <point x="24" y="798.0" type="line"/>
      <point x="6" y="846.0"/>
      <point x="130" y="994.0"/>
      <point x="276" y="994.0" type="qcurve" smooth="yes"/>
      <point x="430" y="994.0"/>
      <point x="566.0" y="840.0"/>
      <point x="570.0" y="733.0" type="qcurve" smooth="yes"/>
      <point x="570.0" y="0.0" type="line"/>
      <point x="238" y="0.0" type="line"/>
      <point x="238.0" y="689" type="line" smooth="yes"/>
      <point x="238.0" y="731"/>
      <point x="172.0" y="792"/>
      <point x="125.0" y="792" type="qcurve" smooth="yes"/>
      <point x="139.0" y="792"/>
      <point x="124.0" y="753"/>
      <point x="162.0" y="748" type="qcurve"/>
    </contour>
    <contour>
      <point x="221.0" y="97" type="line"/>
      <point x="237.0" y="65"/>
      <point x="174.0" y="-13"/>
      <point x="140.0" y="-13" type="qcurve" smooth="yes"/>
      <point x="67.0" y="-13"/>
      <point x="-43" y="128"/>
      <point x="-43" y="311.0" type="qcurve" smooth="yes"/>
      <point x="-43" y="498"/>
      <point x="59.0" y="649"/>
      <point x="159.0" y="649.0" type="qcurve" smooth="yes"/>
      <point x="183.0" y="649"/>
      <point x="236.0" y="630"/>
      <point x="221.0" y="620" type="qcurve"/>
      <point x="220.0" y="513" type="line"/>
      <point x="332.0" y="492"/>
      <point x="295.0" y="529"/>
      <point x="305.0" y="529" type="qcurve" smooth="yes"/>
      <point x="288.0" y="529"/>
      <point x="252" y="435"/>
      <point x="252.0" y="326" type="qcurve" smooth="yes"/>
      <point x="252.0" y="211"/>
      <point x="302" y="154"/>
      <point x="321.0" y="154.0" type="qcurve" smooth="yes"/>
      <point x="263" y="154.0"/>
      <point x="283.0" y="198"/>
      <point x="220.0" y="198" type="qcurve"/>
    </contour>
  </outline>
</glyph>
<glyph name="b" format="2">
  <advance width="680"/>
  <unicode hex="0062"/>
  <outline>
    <contour>
      <point x="28" y="0" type="line"/>
      <point x="28" y="1500" type="line"/>
      <point x="369" y="1500" type="line"/>
      <point x="369" y="0" type="line"/>
    </contour>
    <contour>
      <point x="403.0" y="925" type="line" smooth="yes"/>
      <point x="403.0" y="998.0"/>
      <point x="456.0" y="992.0"/>
      <point x="499.0" y="992" type="qcurve" smooth="yes"/>
      <point x="512" y="992.0" type="line" smooth="yes"/>
      <point x="578.0" y="992.0"/>
      <point x="649.0" y="822.0"/>
      <point x="649" y="688.0" type="qcurve" smooth="yes"/>
      <point x="649" y="340.0" type="line" smooth="yes"/>
      <point x="649.0" y="185.0"/>
      <point x="590.0" y="-17.0"/>
      <point x="520" y="-17.0" type="qcurve" smooth="yes"/>
      <point x="514.0" y="-17.0" type="line" smooth="yes"/>
      <point x="469.0" y="-17"/>
      <point x="403.0" y="-61.0"/>
      <point x="403.0" y="8" type="qcurve" smooth="yes"/>
    </contour>
    <contour>
      <point x="391.0" y="756" type="qcurve" smooth="yes"/>
      <point x="391.0" y="223" type="line" smooth="yes"/>
      <point x="391.0" y="200.0"/>
      <point x="372.0" y="179.0"/>
      <point x="338.0" y="179.0" type="qcurve" smooth="yes"/>
      <point x="338.0" y="179.0" type="line" smooth="yes"/>
      <point x="311.0" y="179.0"/>
      <point x="322.0" y="192"/>
      <point x="322.0" y="223" type="qcurve" smooth="yes"/>
      <point x="322.0" y="752" type="line" smooth="yes"/>
      <point x="322.0" y="785.0"/>
      <point x="288.0" y="787.0"/>
      <point x="322.0" y="787.0" type="qcurve" smooth="yes"/>
      <point x="322.0" y="787.0" type="line" smooth="yes"/>
      <point x="368.0" y="787.0"/>
      <point x="391.0" y="762"/>
    </contour>
  </outline>
</glyph>
<glyph name="c" format="2">
  <advance width="557"/>
  <unicode hex="0063"/>
  <outline>
    <contour>
      <point x="565.0" y="391.0" type="line"/>
      <point x="564" y="289.0" type="line" smooth="yes"/>
      <point x="573" y="140"/>
      <point x="432" y="-15.0"/>
      <point x="300" y="-15.0" type="qcurve" smooth="yes"/>
      <point x="291" y="-15.0" type="line" smooth="yes"/>
      <point x="171" y="-15.0"/>
      <point x="8" y="131.0"/>
      <point x="8" y="339.0" type="qcurve" smooth="yes"/>
      <point x="8" y="688.0" type="line" smooth="yes"/>
      <point x="8" y="823.0"/>
      <point x="166" y="991.0"/>
      <point x="282" y="991.0" type="qcurve" smooth="yes"/>
      <point x="301" y="991.0" type="line" smooth="yes"/>
      <point x="417.0" y="991.0"/>
      <point x="558" y="845.0"/>
      <point x="559" y="707.0" type="qcurve" smooth="yes"/>
      <point x="561" y="552.0" type="line"/>
      <point x="269" y="553.0" type="line"/>
      <point x="268.0" y="700" type="line" smooth="yes"/>
      <point x="271" y="747"/>
      <point x="292.0" y="780"/>
      <point x="316.0" y="780" type="qcurve" smooth="yes"/>
      <point x="317.0" y="780" type="line" smooth="yes"/>
      <point x="337.0" y="780"/>
      <point x="364" y="779"/>
      <point x="364.0" y="761" type="qcurve" smooth="yes"/>
      <point x="364.0" y="232" type="line" smooth="yes"/>
      <point x="364.0" y="211"/>
      <point x="334.0" y="188"/>
      <point x="319.0" y="188" type="qcurve" smooth="yes"/>
      <point x="316.0" y="188" type="line" smooth="yes"/>
      <point x="289.0" y="188"/>
      <point x="280.0" y="219"/>
      <point x="268.0" y="272" type="qcurve" smooth="yes"/>
      <point x="267" y="393.0" type="line"/>
    </contour>
  </outline>
</glyph>
<glyph name="e" format="2">
  <advance width="573"/>
  <unicode hex="0065"/>
  <outline>
    <contour>
      <point x="541" y="318.0" type="line"/>
      <point x="541" y="286.0" type="line" smooth="yes"/>
      <point x="545" y="138"/>
      <point x="427.0" y="-17.0"/>
      <point x="294" y="-17.0" type="qcurve" smooth="yes"/>
      <point x="275" y="-17.0" type="line" smooth="yes"/>
      <point x="181.0" y="-17"/>
      <point x="9" y="149.0"/>
      <point x="9" y="327.0" type="qcurve" smooth="yes"/>
      <point x="9" y="687.0" type="line" smooth="yes"/>
      <point x="9" y="830.0"/>
      <point x="183.0" y="990.0"/>
      <point x="268" y="990.0" type="qcurve" smooth="yes"/>
      <point x="296" y="990.0" type="line" smooth="yes"/>
      <point x="424.0" y="990.0"/>
      <point x="542.0" y="738.0"/>
      <point x="559" y="521" type="qcurve" smooth="yes"/>
      <point x="562" y="420.0" type="line"/>
      <point x="45" y="420" type="line"/>
      <point x="45" y="567" type="line"/>
      <point x="276" y="567.0" type="line"/>
      <point x="275.0" y="658" type="line" smooth="yes"/>
      <point x="261" y="743"/>
      <point x="280" y="794"/>
      <point x="300.0" y="794" type="qcurve" smooth="yes"/>
      <point x="302.0" y="794" type="line" smooth="yes"/>
      <point x="346.0" y="794.0"/>
      <point x="353" y="778"/>
      <point x="353.0" y="738" type="qcurve" smooth="yes"/>
      <point x="353.0" y="230" type="line" smooth="yes"/>
      <point x="353" y="203"/>
      <point x="351.0" y="179.0"/>
      <point x="317.0" y="179" type="qcurve" smooth="yes"/>
      <point x="317.0" y="179" type="line" smooth="yes"/>
      <point x="291.0" y="179"/>
      <point x="272" y="216"/>
      <point x="276.0" y="283" type="qcurve" smooth="yes"/>
      <point x="276" y="328.0" type="line"/>
    </contour>
  </outline>
</glyph>
<glyph name="j" format="2">
  <advance width="225"/>
  <unicode hex="006A"/>
  <outline>
    <contour>
      <point x="202" y="-127" type="line" smooth="yes"/>
      <point x="202" y="-388"/>
      <point x="9" y="-500"/>
      <point x="-85" y="-500" type="qcurve" smooth="yes"/>
      <point x="-165" y="-500"/>
      <point x="-227" y="-491"/>
      <point x="-248" y="-484" type="qcurve"/>
      <point x="-228" y="-216" type="line"/>
      <point x="-223" y="-220"/>
      <point x="-206" y="-231"/>
      <point x="-183" y="-231" type="qcurve" smooth="yes"/>
      <point x="-157" y="-231"/>
      <point x="-131" y="-155"/>
      <point x="-131" y="-69" type="qcurve" smooth="yes"/>
      <point x="-131" y="980" type="line"/>
      <point x="202" y="980" type="line"/>
    </contour>
    <contour>
      <point x="48" y="1031" type="line" smooth="yes"/>
      <point x="136" y="1031"/>
      <point x="232" y="1129"/>
      <point x="232" y="1210" type="qcurve" smooth="yes"/>
      <point x="232" y="1220" type="line" smooth="yes"/>
      <point x="232" y="1300"/>
      <point x="137" y="1401"/>
      <point x="48" y="1401" type="qcurve" smooth="yes"/>
      <point x="44" y="1401" type="line" smooth="yes"/>
      <point x="-39" y="1401"/>
      <point x="-137" y="1300"/>
      <point x="-137" y="1220" type="qcurve" smooth="yes"/>
      <point x="-137" y="1210" type="line" smooth="yes"/>
      <point x="-137" y="1128"/>
      <point x="-41" y="1031"/>
      <point x="44" y="1031" type="qcurve" smooth="yes"/>
    </contour>
    <contour>
      <point x="213" y="685" type="line"/>
      <point x="383" y="665" type="line"/>
      <point x="383" y="960" type="line"/>
      <point x="213" y="980" type="line"/>
    </contour>
  </outline>
</glyph>
<glyph name="l" format="2">
  <advance width="165"/>
  <unicode hex="006C"/>
  <outline>
    <contour>
      <point x="28" y="32" type="qcurve" smooth="yes"/>
      <point x="28" y="1500" type="line"/>
      <point x="369" y="1500" type="line"/>
      <point x="369" y="0" type="line"/>
      <point x="126" y="0"/>
      <point x="28.0" y="-64.0"/>
    </contour>
    <contour>
      <point x="-209" y="39" type="line"/>
      <point x="70" y="29" type="line"/>
      <point x="40" y="254" type="line"/>
      <point x="-209" y="264" type="line"/>
    </contour>
  </outline>
</glyph>
<glyph name="m" format="2">
  <advance width="967"/>
  <unicode hex="006D"/>
  <outline>
    <contour>
      <point x="28" y="0" type="line"/>
      <point x="28" y="980" type="line"/>
      <point x="368" y="980" type="line"/>
      <point x="368" y="0" type="line"/>
    </contour>
    <contour>
      <point x="299" y="589" type="line"/>
      <point x="227" y="693"/>
      <point x="325" y="992"/>
      <point x="508" y="992.0" type="qcurve" smooth="yes"/>
      <point x="612" y="992.0"/>
      <point x="666" y="838"/>
      <point x="666" y="721" type="qcurve" smooth="yes"/>
      <point x="666" y="0" type="line"/>
      <point x="327" y="0" type="line"/>
      <point x="327.0" y="711" type="line" smooth="yes"/>
      <point x="327.0" y="732.0"/>
      <point x="315" y="740"/>
      <point x="343" y="740" type="qcurve" smooth="yes"/>
      <point x="322" y="740"/>
      <point x="306" y="689"/>
      <point x="303" y="600" type="qcurve"/>
    </contour>
    <contour>
      <point x="572" y="673" type="line"/>
      <point x="500" y="750"/>
      <point x="632" y="992.0"/>
      <point x="788" y="992.0" type="qcurve" smooth="yes"/>
      <point x="896" y="992"/>
      <point x="951" y="838"/>
      <point x="951" y="721" type="qcurve" smooth="yes"/>
      <point x="951" y="0" type="line"/>
      <point x="611" y="0" type="line"/>
      <point x="611.0" y="711" type="line" smooth="yes"/>
      <point x="611.0" y="732.0"/>
      <point x="599" y="740"/>
      <point x="627" y="740" type="qcurve" smooth="yes"/>
      <point x="606" y="740"/>
      <point x="590" y="689"/>
      <point x="587" y="600" type="qcurve"/>
    </contour>
  </outline>
</glyph>
<glyph name="n" format="2">
  <advance width="622"/>
  <unicode hex="006E"/>
  <outline>
    <contour>
      <point x="28" y="0" type="line"/>
      <point x="28" y="980" type="line"/>
      <point x="368" y="980" type="line"/>
      <point x="368" y="0" type="line"/>
    </contour>
    <contour>
      <point x="273" y="609" type="line"/>
      <point x="204" y="713"/>
      <point x="278" y="992"/>
      <point x="426" y="992.0" type="qcurve" smooth="yes"/>
      <point x="535" y="992.0"/>
      <point x="605.0" y="838.0"/>
      <point x="605.0" y="721" type="qcurve" smooth="yes"/>
      <point x="605" y="0" type="line"/>
      <point x="265" y="0" type="line"/>
      <point x="265.0" y="701" type="line" smooth="yes"/>
      <point x="265.0" y="722.0"/>
      <point x="238" y="730"/>
      <point x="257" y="730" type="qcurve" smooth="yes"/>
      <point x="275" y="730"/>
      <point x="283" y="693"/>
      <point x="277" y="604" type="qcurve"/>
    </contour>
  </outline>
</glyph>
<glyph name="o" format="2">
  <advance width="612"/>
  <unicode hex="006F"/>
  <outline>
    <contour>
      <point x="302" y="-16.0" type="line" smooth="yes"/>
      <point x="165" y="-16.0"/>
      <point x="8" y="147"/>
      <point x="8" y="328.0" type="qcurve" smooth="yes"/>
      <point x="8" y="678.0" type="line" smooth="yes"/>
      <point x="8" y="825"/>
      <point x="177" y="992.0"/>
      <point x="300" y="992.0" type="qcurve" smooth="yes"/>
      <point x="303" y="992.0" type="line" smooth="yes"/>
      <point x="429" y="992.0"/>
      <point x="605" y="824"/>
      <point x="605" y="683.0" type="qcurve" smooth="yes"/>
      <point x="605" y="332.0" type="line" smooth="yes"/>
      <point x="605" y="148"/>
      <point x="441" y="-16.0"/>
      <point x="305" y="-16.0" type="qcurve" smooth="yes"/>
    </contour>
    <contour>
      <point x="310.0" y="187" type="line" smooth="yes"/>
      <point x="292.0" y="187.0"/>
      <point x="266" y="194"/>
      <point x="266.0" y="228" type="qcurve" smooth="yes"/>
      <point x="266.0" y="753" type="line" smooth="yes"/>
      <point x="266" y="780"/>
      <point x="291.0" y="790.0"/>
      <point x="310.0" y="790" type="qcurve" smooth="yes"/>
      <point x="312.0" y="790" type="line" smooth="yes"/>
      <point x="328.0" y="790.0"/>
      <point x="354" y="780"/>
      <point x="354.0" y="753" type="qcurve" smooth="yes"/>
      <point x="354.0" y="228" type="line" smooth="yes"/>
      <point x="354" y="195"/>
      <point x="339.0" y="187.0"/>
      <point x="312.0" y="187" type="qcurve" smooth="yes"/>
    </contour>
  </outline>
</glyph>
<glyph name="p" format="2">
  <advance width="681"/>
  <unicode hex="0070"/>
  <outline>
    <contour>
      <point x="28" y="-500" type="line"/>
      <point x="28" y="980" type="line"/>
      <point x="368" y="980" type="line"/>
      <point x="368" y="-500" type="line"/>
    </contour>
    <contour>
      <point x="354.0" y="729.0" type="line" smooth="yes"/>
      <point x="354.0" y="915.0"/>
      <point x="469.0" y="992.0"/>
      <point x="513.0" y="992.0" type="qcurve" smooth="yes"/>
      <point x="526" y="992.0" type="line" smooth="yes"/>
      <point x="592.0" y="992.0"/>
      <point x="638.0" y="836.0"/>
      <point x="638" y="687.0" type="qcurve" smooth="yes"/>
      <point x="638" y="340.0" type="line" smooth="yes"/>
      <point x="638.0" y="162.0"/>
      <point x="584.0" y="-17.0"/>
      <point x="510" y="-17.0" type="qcurve" smooth="yes"/>
      <point x="496.0" y="-17.0" type="line" smooth="yes"/>
      <point x="440.0" y="-17.0"/>
      <point x="354.0" y="-6.0"/>
      <point x="354.0" y="115.0" type="qcurve" smooth="yes"/>
    </contour>
    <contour>
      <point x="391.0" y="770.0" type="qcurve" smooth="yes"/>
      <point x="391.0" y="284.0" type="line" smooth="yes"/>
      <point x="391.0" y="220.0"/>
      <point x="365.0" y="179.0"/>
      <point x="333.0" y="179.0" type="qcurve" smooth="yes"/>
      <point x="334.0" y="179.0" type="line" smooth="yes"/>
      <point x="301.0" y="179.0"/>
      <point x="289.0" y="186.0"/>
      <point x="289.0" y="215.0" type="qcurve" smooth="yes"/>
      <point x="289.0" y="750.0" type="line" smooth="yes"/>
      <point x="289.0" y="788.0"/>
      <point x="298.0" y="787.0"/>
      <point x="335.0" y="787.0" type="qcurve" smooth="yes"/>
      <point x="335.0" y="787.0" type="line" smooth="yes"/>
      <point x="384.0" y="787.0"/>
      <point x="391.0" y="744.0"/>
    </contour>
  </outline>
</glyph>
<glyph name="q" format="2">
  <advance width="690"/>
  <unicode hex="0071"/>
  <outline>
    <contour>
      <point x="662" y="-500" type="line"/>
      <point x="321" y="-500" type="line"/>
      <point x="321" y="980" type="line"/>
      <point x="662" y="980" type="line"/>
    </contour>
    <contour>
      <point x="254.0" y="916.0" type="qcurve" smooth="yes"/>
      <point x="254.0" y="-12.0" type="line" smooth="yes"/>
      <point x="254.0" y="-55.0"/>
      <point x="178.0" y="-17.0"/>
      <point x="135.0" y="-17.0" type="qcurve" smooth="yes"/>
      <point x="131.0" y="-17.0" type="line" smooth="yes"/>
      <point x="65" y="-17"/>
      <point x="8.0" y="179.0"/>
      <point x="8.0" y="354.0" type="qcurve" smooth="yes"/>
      <point x="8.0" y="687.0" type="line" smooth="yes"/>
      <point x="8.0" y="822.0"/>
      <point x="64.0" y="992.0"/>
      <point x="124.0" y="992.0" type="qcurve" smooth="yes"/>
      <point x="128.0" y="992.0" type="line" smooth="yes"/>
      <point x="175.0" y="992.0"/>
      <point x="254.0" y="1017.0"/>
    </contour>
    <contour>
      <point x="280" y="728.0" type="line" smooth="yes"/>
      <point x="280" y="732.0"/>
      <point x="299" y="787.0"/>
      <point x="328" y="787.0" type="qcurve" smooth="yes"/>
      <point x="327" y="787.0" type="line" smooth="yes"/>
      <point x="354" y="787.0"/>
      <point x="337.0" y="784.0"/>
      <point x="337.0" y="755.0" type="qcurve" smooth="yes"/>
      <point x="337.0" y="227.0" type="line" smooth="yes"/>
      <point x="337.0" y="192.0"/>
      <point x="340" y="178.0"/>
      <point x="317" y="178.0" type="qcurve" smooth="yes"/>
      <point x="318" y="178.0" type="line" smooth="yes"/>
      <point x="276" y="178.0"/>
      <point x="280" y="181.0"/>
      <point x="280" y="236.0" type="qcurve" smooth="yes"/>
    </contour>
  </outline>
</glyph>
<glyph name="r" format="2">
  <advance width="371"/>
  <unicode hex="0072"/>
  <outline>
    <contour>
      <point x="28" y="0" type="line"/>
      <point x="28" y="979" type="line"/>
      <point x="374" y="979" type="line"/>
      <point x="374" y="0" type="line"/>
    </contour>
    <contour>
      <point x="162.0" y="631" type="line"/>
      <point x="204.0" y="766"/>
      <point x="327" y="991.0"/>
      <point x="341.0" y="991.0" type="qcurve" smooth="yes"/>
      <point x="378" y="991"/>
      <point x="404" y="988.0"/>
      <point x="409" y="985.0" type="qcurve"/>
      <point x="409" y="674.0" type="line"/>
      <point x="399" y="678.0"/>
      <point x="366" y="683.0"/>
      <point x="328" y="683.0" type="qcurve" smooth="yes"/>
      <point x="301" y="683"/>
      <point x="202" y="613.0"/>
      <point x="170" y="518.0" type="qcurve"/>
    </contour>
  </outline>
</glyph>
<glyph name="s" format="2">
  <advance width="500"/>
  <unicode hex="0073"/>
  <outline>
    <contour>
      <point x="234.0" y="268" type="line" smooth="yes"/>
      <point x="234.0" y="284.0"/>
      <point x="195.0" y="353"/>
      <point x="155.0" y="398" type="qcurve" smooth="yes"/>
      <point x="46" y="466"/>
      <point x="-47.0" y="623"/>
      <point x="-47.0" y="712.0" type="qcurve" smooth="yes"/>
      <point x="-47.0" y="724.0" type="line" smooth="yes"/>
      <point x="-47.0" y="850"/>
      <point x="115.0" y="992"/>
      <point x="242.0" y="992.0" type="qcurve" smooth="yes"/>
      <point x="282.0" y="992.0" type="line" smooth="yes"/>
      <point x="376.0" y="992.0"/>
      <point x="539" y="868"/>
      <point x="540.0" y="760.0" type="qcurve" smooth="yes"/>
      <point x="539.0" y="741.0" type="line"/>
      <point x="239.0" y="741.0" type="line"/>
      <point x="238.0" y="729.0" type="line" smooth="yes"/>
      <point x="233.0" y="765"/>
      <point x="259.0" y="805.0"/>
      <point x="288.0" y="805.0" type="qcurve" smooth="yes"/>
      <point x="251.0" y="805.0" type="line" smooth="yes"/>
      <point x="272" y="805"/>
      <point x="254" y="764.0"/>
      <point x="254.0" y="717.0" type="qcurve" smooth="yes"/>
      <point x="254.0" y="718.0" type="line" smooth="yes"/>
      <point x="254" y="685.0"/>
      <point x="305.0" y="634"/>
      <point x="318.0" y="606" type="qcurve" smooth="yes"/>
      <point x="418.0" y="558"/>
      <point x="531.0" y="376.0"/>
      <point x="531.0" y="272.0" type="qcurve" smooth="yes"/>
      <point x="531.0" y="277.0" type="line" smooth="yes"/>
      <point x="531.0" y="159"/>
      <point x="386.0" y="-14.0"/>
      <point x="242.0" y="-14.0" type="qcurve" smooth="yes"/>
      <point x="233.0" y="-14.0" type="line" smooth="yes"/>
      <point x="106.0" y="-14"/>
      <point x="-46.0" y="137"/>
      <point x="-44.0" y="247.0" type="qcurve" smooth="yes"/>
      <point x="-44.0" y="264.0" type="line"/>
      <point x="294.0" y="266.0" type="line"/>
      <point x="294.0" y="290.0" type="line" smooth="yes"/>
      <point x="294" y="209"/>
      <point x="268.0" y="172.0"/>
      <point x="252.0" y="172.0" type="qcurve" smooth="yes"/>
      <point x="259.0" y="172.0" type="line" smooth="yes"/>
      <point x="297.0" y="172.0"/>
      <point x="234" y="224"/>
      <point x="234.0" y="260" type="qcurve" smooth="yes"/>
    </contour>
  </outline>
</glyph>
<glyph name="v" format="2">
  <advance width="561"/>
  <unicode hex="0076"/>
  <outline>
    <contour>
      <point x="128" y="0" type="line"/>
      <point x="-60" y="980" type="line"/>
      <point x="258" y="980" type="line"/>
      <point x="288" y="509" type="line"/>
      <point x="306" y="980" type="line"/>
      <point x="621" y="980" type="line"/>
      <point x="436" y="0" type="line"/>
    </contour>
  </outline>
</glyph>
<glyph name="w" format="2">
  <advance width="828"/>
  <unicode hex="0077"/>
  <outline>
    <contour>
      <point x="139" y="0" type="line"/>
      <point x="-40" y="980" type="line"/>
      <point x="230.0" y="980" type="line"/>
      <point x="280.0" y="581" type="line"/>
      <point x="272.0" y="980" type="line"/>
      <point x="548" y="980.0" type="line"/>
      <point x="575" y="579.0" type="line"/>
      <point x="599" y="980.0" type="line"/>
      <point x="867" y="980" type="line"/>
      <point x="701" y="0" type="line"/>
      <point x="447" y="0.0" type="line"/>
      <point x="426" y="553" type="line"/>
      <point x="393" y="0.0" type="line"/>
    </contour>
  </outline>
</glyph>
<glyph name="y" format="2">
  <advance width="546"/>
  <unicode hex="0079"/>
  <outline>
    <contour>
      <point x="158" y="35" type="qcurve"/>
      <point x="-53" y="980" type="line"/>
      <point x="267.0" y="980" type="line"/>
      <point x="297.0" y="509" type="line"/>
      <point x="308.0" y="980" type="line"/>
      <point x="626" y="980" type="line"/>
      <point x="449" y="1" type="line" smooth="yes"/>
      <point x="387" y="-274"/>
      <point x="172" y="-500"/>
      <point x="66" y="-500" type="qcurve" smooth="yes"/>
      <point x="-6" y="-500"/>
      <point x="-71" y="-491"/>
      <point x="-94" y="-484" type="qcurve"/>
      <point x="-82" y="-222" type="line"/>
      <point x="-61" y="-227"/>
      <point x="20" y="-240"/>
      <point x="47" y="-240" type="qcurve" smooth="yes"/>
      <point x="36" y="-240"/>
      <point x="155" y="-108"/>
    </contour>
  </outline>
</glyph>
<glyph name="z" format="2">
  <advance width="503"/>
  <unicode hex="007A"/>
  <outline>
    <contour>
      <point x="525" y="0" type="line"/>
      <point x="15" y="0" type="line"/>
      <point x="10" y="195" type="line"/>
      <point x="151" y="748" type="line"/>
      <point x="33" y="748" type="line"/>
      <point x="33" y="980" type="line"/>
      <point x="505" y="980" type="line"/>
      <point x="505" y="791" type="line"/>
      <point x="359" y="227" type="line"/>
      <point x="525" y="227" type="line"/>
    </contour>
  </outline>
</glyph>
